<svg width="24" height="25" viewBox="0 0 24 25" fill="none" xmlns="http://www.w3.org/2000/svg">
<path d="M22.7148 4.57792C22.4335 4.24035 22.0814 3.96887 21.6834 3.78273C21.2853 3.5966 20.8512 3.50038 20.4118 3.50092H4.24383L4.20183 3.14992C4.11588 2.42033 3.76522 1.74765 3.21632 1.25939C2.66743 0.771139 1.95846 0.501257 1.22383 0.500916L1.00183 0.500916C0.736615 0.500916 0.482261 0.606272 0.294724 0.793809C0.107188 0.981345 0.00183105 1.2357 0.00183105 1.50092C0.00183105 1.76613 0.107188 2.02049 0.294724 2.20802C0.482261 2.39556 0.736615 2.50092 1.00183 2.50092H1.22383C1.46876 2.50095 1.70517 2.59087 1.8882 2.75363C2.07124 2.91639 2.18817 3.14066 2.21683 3.38392L3.59283 15.0839C3.73568 16.3007 4.32031 17.4227 5.23574 18.2369C6.15117 19.0512 7.33369 19.5009 8.55883 19.5009H19.0018C19.267 19.5009 19.5214 19.3956 19.7089 19.208C19.8965 19.0205 20.0018 18.7661 20.0018 18.5009C20.0018 18.2357 19.8965 17.9813 19.7089 17.7938C19.5214 17.6063 19.267 17.5009 19.0018 17.5009H8.55883C7.93989 17.4992 7.33663 17.306 6.83177 16.948C6.3269 16.5899 5.94514 16.0845 5.73883 15.5009H17.6588C18.8311 15.501 19.9662 15.0891 20.8657 14.3374C21.7651 13.5856 22.3719 12.5416 22.5798 11.3879L23.3648 7.03392C23.4432 6.60192 23.4256 6.15798 23.3132 5.73355C23.2009 5.30912 22.9966 4.91459 22.7148 4.57792ZM21.4018 6.67892L20.6158 11.0329C20.491 11.7259 20.1263 12.3529 19.5857 12.8041C19.0451 13.2553 18.363 13.502 17.6588 13.5009H5.42083L4.47983 5.50092H20.4118C20.5587 5.50004 20.704 5.53154 20.8374 5.59317C20.9707 5.65481 21.0888 5.74506 21.1834 5.85752C21.2779 5.96998 21.3464 6.10189 21.3842 6.24385C21.422 6.38582 21.428 6.53436 21.4018 6.67892Z" fill="black"/>
<path d="M7.00198 24.5015C8.10655 24.5015 9.00198 23.6061 9.00198 22.5016C9.00198 21.397 8.10655 20.5016 7.00198 20.5016C5.89741 20.5016 5.00198 21.397 5.00198 22.5016C5.00198 23.6061 5.89741 24.5015 7.00198 24.5015Z" fill="black"/>
<path d="M17.0018 24.5015C18.1064 24.5015 19.0018 23.6061 19.0018 22.5016C19.0018 21.397 18.1064 20.5016 17.0018 20.5016C15.8973 20.5016 15.0018 21.397 15.0018 22.5016C15.0018 23.6061 15.8973 24.5015 17.0018 24.5015Z" fill="black"/>
</svg>
