<svg width="132" height="45" viewBox="0 0 132 45" fill="none" xmlns="http://www.w3.org/2000/svg">
<g clip-path="url(#clip0_90_90)">
<path d="M29.4686 0H0L9.7543 15.1984H19.3805C21.7036 15.1984 23.3152 17.7107 22.5128 20.0783L19.1832 29.8895L28.8836 45.0018L39.0745 14.9695C41.5392 7.70722 36.593 0 29.4686 0Z" fill="#18ABCC"/>
<path d="M58.986 0H44.1557L38.997 15.1984H53.8274L58.986 0Z" fill="#18ABCC"/>
<path d="M46.6895 28.0108H43.0632L44.1304 24.8631H54.9029L53.8358 28.0108H50.191L46.6726 38.3786H43.1711L46.6895 28.0108Z" fill="#333333"/>
<path d="M67.98 24.8832L65.4176 32.4312C64.079 36.4267 61.0782 38.6662 57.4351 38.6662C53.792 38.6662 52.2966 36.5237 53.6992 32.3909L56.2482 24.8814H59.7497L57.2007 32.3909C56.4792 34.515 57.1198 35.4031 58.5427 35.4031C59.9655 35.4031 61.2215 34.4765 61.9161 32.4312L64.4785 24.8832H67.98Z" fill="#333333"/>
<path d="M71.8962 28.0108H68.27L69.3371 24.8631H80.1097L79.0425 28.0108H75.3977L71.8794 38.3786H68.3779L71.8962 28.0108Z" fill="#333333"/>
<path d="M81.7551 28.0108H78.1288L79.196 24.8631H89.9685L88.9014 28.0108H85.2566L81.7382 38.3786H78.2367L81.7551 28.0108Z" fill="#333333"/>
<path d="M92.8429 38.7064C88.7716 38.7064 86.7991 36.1392 88.3316 31.6218C89.8387 27.1813 93.5813 24.5353 97.6509 24.5353C101.721 24.5353 103.688 27.1227 102.161 31.6218C100.628 36.1392 96.9294 38.7064 92.8412 38.7064H92.8429ZM96.545 27.7984C94.5355 27.7984 92.6119 29.3805 91.8533 31.6218C91.0862 33.8796 91.9595 35.4433 93.9505 35.4433C95.9415 35.4433 97.8836 33.8594 98.6422 31.6218C99.4278 29.3036 98.6068 27.7984 96.545 27.7984Z" fill="#333333"/>
<path d="M102.791 43.9562C102.604 43.9562 102.44 43.8537 102.3 43.6504C102.095 43.3996 102.017 43.0077 102.07 42.473C102.189 41.248 103.106 38.179 104.816 33.2661L104.293 33.2899C103.99 33.2899 103.801 33.2698 103.725 33.2313C103.649 33.1929 103.585 33.0867 103.529 32.9127C103.508 32.8504 103.497 32.8028 103.499 32.7717C103.526 32.5044 103.926 32.1748 104.701 31.7829L105.475 31.4057C107.001 26.7583 107.887 24.0281 108.133 23.2114C108.38 22.3947 108.523 21.8545 108.563 21.5872C108.632 21.1788 108.702 20.9206 108.769 20.8108C108.838 20.7009 108.944 20.646 109.089 20.646C109.393 20.646 109.572 20.8181 109.624 21.1642C109.634 21.2118 109.634 21.2814 109.624 21.3766C109.595 21.6586 109.411 22.3654 109.069 23.4952L108.014 26.7455C107.137 29.4922 106.695 30.8893 106.692 30.9369C106.793 30.9369 107.009 30.8747 107.339 30.7483C108.688 30.2612 110.212 29.8932 111.915 29.6423C112.151 29.5947 112.355 29.5709 112.528 29.5709C112.645 29.5709 112.727 29.6093 112.776 29.6881C112.909 29.7979 112.97 29.9151 112.958 30.0415C112.928 30.3564 112.712 30.5597 112.313 30.6531C110.433 30.9516 108.791 31.3434 107.385 31.8305L106.196 32.2315L106.569 32.4201C107.038 32.6563 107.36 33.0555 107.535 33.6213C107.66 33.9674 107.697 34.3977 107.646 34.916C107.589 35.4964 107.427 36.1886 107.161 36.9888C106.62 38.6679 105.873 40.2464 104.919 41.7223C104.007 43.2146 103.297 43.9599 102.791 43.9599V43.9562ZM103.076 42.614C103.12 42.614 103.275 42.4327 103.541 42.072C104.817 40.2665 105.738 38.3914 106.306 36.4431C106.476 35.8773 106.584 35.3829 106.625 34.9599C106.711 34.081 106.495 33.5554 105.977 33.3815L105.871 33.3577C105.856 33.3577 105.772 33.5627 105.617 33.9693C104.662 36.6226 103.968 38.7577 103.535 40.3746C103.261 41.3798 103.108 42.0702 103.071 42.4474C103.061 42.5573 103.062 42.6122 103.076 42.6122V42.614Z" fill="#18ABCC"/>
<path d="M112.608 34.5131C112.419 34.5131 112.25 34.4747 112.099 34.3959C111.605 34.1286 111.402 33.5335 111.493 32.6069C111.539 32.1528 111.657 31.6108 111.847 30.9827C112.662 28.5803 113.329 27.3809 113.848 27.3809C113.95 27.3809 114.042 27.4321 114.127 27.5329C114.211 27.6354 114.246 27.7416 114.236 27.8515C114.228 27.9302 114.13 28.1261 113.94 28.4393C113.709 28.8787 113.446 29.4995 113.151 30.2997C112.746 31.3361 112.513 32.1601 112.453 32.7717C112.407 33.2277 112.508 33.4547 112.754 33.4547C113.172 33.4547 114.076 32.9438 115.464 31.9239C116.305 31.3123 117.143 30.6513 117.977 29.9463C118.291 29.6954 118.542 29.5691 118.729 29.5691C118.975 29.5691 119.083 29.7192 119.054 30.0159C119.031 30.2521 118.775 30.5725 118.287 30.9809C116.873 32.1436 115.624 33.0775 114.543 33.7825C113.744 34.2696 113.098 34.5131 112.606 34.5131H112.608ZM114.31 26.8828C114.167 26.8682 114.063 26.8004 113.993 26.6832C113.926 26.566 113.897 26.4525 113.907 26.3426C113.933 26.2328 114.007 26.057 114.133 25.8134C114.258 25.5699 114.401 25.363 114.563 25.189C114.725 25.0169 114.863 24.9308 114.98 24.9308C115.081 24.9308 115.174 24.9858 115.256 25.0956C115.339 25.2055 115.374 25.3227 115.362 25.449C115.356 25.5113 115.312 25.6303 115.231 25.8024C115.148 25.9746 115.059 26.1485 114.963 26.3206C114.867 26.4928 114.769 26.6301 114.673 26.7326C114.577 26.8352 114.455 26.8865 114.31 26.8865V26.8828Z" fill="#18ABCC"/>
<path d="M117.932 41.4586C117.54 41.4586 117.208 41.2462 116.932 40.8232C116.542 40.2262 116.418 39.2136 116.558 37.7853C116.716 36.1685 117.235 33.8301 118.114 30.7685C118.8 28.3349 119.572 26.0039 120.427 23.7754C120.838 22.6767 121.045 22.1036 121.05 22.0559L120.858 22.0321C120.28 22.0321 118.984 22.142 116.967 22.3617C115.9 22.4881 114.922 22.6218 114.034 22.7628C113.145 22.9038 112.55 22.9752 112.247 22.9752C112.117 22.9752 112.024 22.9605 111.97 22.9276C111.778 22.8177 111.694 22.6602 111.713 22.457C111.729 22.2848 111.815 22.1512 111.969 22.0559C112.06 22.0083 112.818 21.8765 114.241 21.6549C115.664 21.4352 117.156 21.2539 118.717 21.1129C119.693 21.0342 120.388 20.9957 120.799 20.9957C121.211 20.9957 121.448 20.9719 121.511 20.9261C121.573 20.8785 121.784 20.4244 122.143 19.5601C122.482 18.7599 122.706 18.3113 122.817 18.2179C122.927 18.1245 123.033 18.0769 123.134 18.0769C123.207 18.0769 123.276 18.1007 123.345 18.1483C123.493 18.2582 123.556 18.4395 123.53 18.6903C123.522 18.7691 123.483 18.9101 123.412 19.1133C123.341 19.3184 123.256 19.5253 123.156 19.7377C123.055 19.9501 122.967 20.1461 122.893 20.3274C122.817 20.5086 122.762 20.6295 122.728 20.6918C122.723 20.7394 122.748 20.7705 122.805 20.7851C122.93 20.8328 123.775 20.8566 125.334 20.8566H129.562C130.761 20.873 131.472 20.939 131.7 21.0562C131.927 21.1733 132.027 21.3656 132.002 21.633C131.992 21.7428 131.938 21.849 131.84 21.9516C131.744 22.0541 131.616 22.1054 131.455 22.1054L131.221 22.0578C130.855 21.9479 129.539 21.893 127.27 21.893C125.939 21.893 124.238 21.9241 122.165 21.9864L120.437 26.555C120.135 27.4193 119.825 28.377 119.504 29.4281C118.437 32.9292 117.812 35.6301 117.625 37.529C117.508 38.7064 117.507 39.4645 117.618 39.8014C117.729 40.1383 117.82 40.3196 117.889 40.3434C117.959 40.3672 118.009 40.3782 118.038 40.3782C118.152 40.3782 118.326 40.316 118.555 40.1896C119.732 39.5469 121.587 37.4338 124.12 33.8557C125.268 32.1766 125.997 31.0413 126.309 30.4535C126.619 29.8657 126.912 29.5709 127.187 29.5709C127.433 29.5709 127.544 29.6881 127.521 29.9243C127.5 30.1294 127.2 30.7648 126.617 31.8323C125.923 33.0262 124.968 34.4234 123.756 36.0238C121.002 39.6494 119.059 41.4641 117.933 41.4641L117.932 41.4586Z" fill="#18ABCC"/>
</g>
<defs>
<clipPath id="clip0_90_90">
<rect width="132" height="45" fill="white"/>
</clipPath>
</defs>
</svg>
